<?xml version="1.0" encoding="iso-8859-1"?>
<!-- Generator: Adobe Illustrator 18.0.0, SVG Export Plug-In . SVG Version: 6.00 Build 0)  -->
<!DOCTYPE svg PUBLIC "-//W3C//DTD SVG 1.1//EN" "http://www.w3.org/Graphics/SVG/1.1/DTD/svg11.dtd">
<svg version="1.1" id="Capa_1" xmlns="http://www.w3.org/2000/svg" xmlns:xlink="http://www.w3.org/1999/xlink" x="0px" y="0px"
	 viewBox="0 0 320 320" style="enable-background:new 0 0 320 320;" xml:space="preserve">
<polygon points="6.436,188.182 16.721,198.467 47.914,167.273 64.706,167.273 33.33,198.65 43.615,208.936 85.276,167.273 
	142.441,167.273 87.035,222.68 37.811,222.679 37.811,237.225 72.489,237.225 43.305,266.41 53.59,276.695 82.774,247.51 
	82.774,282.19 97.319,282.19 97.319,232.965 152.727,177.558 152.727,234.723 111.064,276.385 121.35,286.67 152.727,255.293 
	152.727,272.085 121.533,303.278 131.818,313.564 152.727,292.655 152.727,320 167.273,320 167.273,292.655 188.182,313.564 
	198.467,303.278 167.273,272.085 167.273,255.293 198.65,286.67 208.936,276.385 167.273,234.723 167.273,177.558 222.681,232.965 
	222.681,282.19 237.226,282.19 237.226,247.51 266.41,276.695 276.695,266.41 247.511,237.225 282.19,237.225 282.19,222.679 
	232.965,222.68 177.559,167.273 234.723,167.273 276.385,208.936 286.67,198.65 255.293,167.273 272.085,167.273 303.277,198.467 
	313.563,188.182 292.655,167.273 320,167.273 320,152.727 292.655,152.727 313.563,131.818 303.277,121.533 272.085,152.727 
	255.293,152.727 286.67,121.35 276.385,111.064 234.723,152.727 177.558,152.727 232.964,97.321 282.19,97.321 282.19,82.775 
	247.51,82.775 270.951,59.334 260.666,49.049 237.226,72.489 237.226,37.81 222.681,37.81 222.681,87.034 167.273,142.442 
	167.273,85.277 208.936,43.615 198.65,33.33 167.273,64.707 167.273,47.916 198.467,16.722 188.182,6.437 167.273,27.345 167.273,0 
	152.727,0 152.727,27.345 131.818,6.437 121.533,16.722 152.727,47.916 152.727,64.707 121.35,33.33 111.064,43.615 152.727,85.277 
	152.727,142.442 97.319,87.034 97.319,37.81 82.774,37.81 82.774,72.489 59.334,49.049 49.049,59.334 72.49,82.775 37.811,82.775 
	37.811,97.321 87.036,97.321 142.442,152.727 85.276,152.727 43.615,111.064 33.33,121.35 64.706,152.727 47.914,152.727 
	16.721,121.533 6.436,131.818 27.344,152.727 0,152.727 0,167.273 27.344,167.273 "/>
<g>
</g>
<g>
</g>
<g>
</g>
<g>
</g>
<g>
</g>
<g>
</g>
<g>
</g>
<g>
</g>
<g>
</g>
<g>
</g>
<g>
</g>
<g>
</g>
<g>
</g>
<g>
</g>
<g>
</g>
</svg>
