<?xml version="1.0" encoding="iso-8859-1"?>
<!-- Generator: Adobe Illustrator 19.0.0, SVG Export Plug-In . SVG Version: 6.00 Build 0)  -->
<svg version="1.1" id="Capa_1" xmlns="http://www.w3.org/2000/svg" xmlns:xlink="http://www.w3.org/1999/xlink" x="0px" y="0px"
	 viewBox="0 0 512 512" style="enable-background:new 0 0 512 512;" xml:space="preserve">
<g>
	<g>
		<path d="M238.933,34.133h-68.267c-4.71,0-8.533,3.814-8.533,8.533v68.267c0,4.719,3.823,8.533,8.533,8.533h68.267
			c4.71,0,8.533-3.814,8.533-8.533V42.667C247.467,37.948,243.644,34.133,238.933,34.133z M230.4,102.4h-51.2V51.2h51.2V102.4z"/>
	</g>
</g>
<g>
	<g>
		<path d="M341.333,34.133h-68.267c-4.71,0-8.533,3.814-8.533,8.533v68.267c0,4.719,3.823,8.533,8.533,8.533h68.267
			c4.71,0,8.533-3.814,8.533-8.533V42.667C349.867,37.948,346.044,34.133,341.333,34.133z M332.8,102.4h-51.2V51.2h51.2V102.4z"/>
	</g>
</g>
<g>
	<g>
		<path d="M397.79,155.409c-2.074-1.621-4.787-2.21-7.322-1.553l-273.067,68.267c-3.806,0.956-6.468,4.361-6.468,8.277v221.841
			c0,14.131,11.494,25.626,25.626,25.626h238.882c14.131,0,25.626-11.494,25.626-25.626V162.133
			C401.067,159.505,399.863,157.03,397.79,155.409z M384,452.241c0,4.719-3.84,8.559-8.559,8.559H136.559
			c-4.719,0-8.559-3.84-8.559-8.559V237.065l256-64V452.241z"/>
	</g>
</g>
<g>
	<g>
		<path d="M375.467,460.8H136.533c-4.71,0-8.533,3.814-8.533,8.533v17.041C128,500.506,139.494,512,153.626,512h204.749
			C372.506,512,384,500.506,384,486.374v-17.041C384,464.614,380.177,460.8,375.467,460.8z M366.934,486.374L366.934,486.374
			c-0.001,4.719-3.841,8.559-8.56,8.559H153.626c-4.719,0-8.559-3.84-8.559-8.559v-8.508h221.867V486.374z"/>
	</g>
</g>
<g>
	<g>
		<path d="M397.79,155.409c-2.074-1.621-4.787-2.21-7.322-1.553l-273.067,68.267c-3.806,0.956-6.468,4.361-6.468,8.277v51.2
			c0,2.628,1.212,5.111,3.285,6.724c1.51,1.186,3.362,1.809,5.248,1.809c0.691,0,1.382-0.085,2.074-0.256l273.067-68.267
			c3.797-0.956,6.46-4.361,6.46-8.277v-51.2C401.067,159.505,399.863,157.03,397.79,155.409z M384,206.669l-256,64v-33.604l256-64
			V206.669z"/>
	</g>
</g>
<g>
	<g>
		<path d="M358.426,0H153.574C139.469,0,128,11.477,128,25.574v200.559c0,2.628,1.212,5.111,3.285,6.724
			c1.51,1.186,3.362,1.809,5.248,1.809c0.691,0,1.382-0.085,2.074-0.256l238.933-59.733c3.797-0.956,6.46-4.36,6.46-8.277V25.574
			C384,11.477,372.531,0,358.426,0z M145.066,215.202V25.574c0-4.693,3.814-8.508,8.508-8.508h204.851
			c4.693,0,8.508,3.814,8.508,8.508v134.161h0L145.066,215.202z"/>
	</g>
</g>
<g>
	<g>
		<path d="M341.333,136.533h-68.267c-4.71,0-8.533,3.814-8.533,8.533V192c0,2.628,1.212,5.112,3.285,6.724
			c1.51,1.186,3.362,1.809,5.248,1.809c0.691,0,1.391-0.085,2.074-0.256l68.267-17.067c3.797-0.956,6.46-4.361,6.46-8.277v-29.867
			C349.867,140.348,346.044,136.533,341.333,136.533z M332.8,168.269l-51.2,12.8V153.6h51.2V168.269z"/>
	</g>
</g>
<g>
	<g>
		<path d="M238.933,136.533h-68.267c-4.71,0-8.533,3.814-8.533,8.533V217.6c0,2.628,1.212,5.111,3.285,6.724
			c1.51,1.186,3.362,1.809,5.248,1.809c0.691,0,1.382-0.085,2.065-0.256l68.267-17.067c3.806-0.956,6.468-4.361,6.468-8.277v-55.467
			C247.467,140.348,243.644,136.533,238.933,136.533z M230.4,193.869l-51.2,12.8V153.6h51.2V193.869z"/>
	</g>
</g>
<g>
	<g>
		<path d="M264.533,281.6c-42.351,0-76.8,34.449-76.8,76.8s34.449,76.8,76.8,76.8c42.342,0,76.8-34.449,76.8-76.8
			C341.333,316.049,306.876,281.6,264.533,281.6z M264.533,418.133c-32.939,0-59.733-26.803-59.733-59.733
			s26.795-59.733,59.733-59.733c32.938,0,59.733,26.803,59.733,59.733C324.267,391.33,297.472,418.133,264.533,418.133z"/>
	</g>
</g>
<g>
	<g>
		<path d="M298.667,349.867c-4.71,0-8.533,3.814-8.533,8.533c0,14.114-11.486,25.6-25.6,25.6c-14.114,0-25.6-11.486-25.6-25.6
			s11.486-25.6,25.6-25.6c4.71,0,8.533-3.814,8.533-8.533s-3.823-8.533-8.533-8.533c-23.526,0-42.667,19.14-42.667,42.667
			c0,23.526,19.14,42.667,42.667,42.667S307.2,381.926,307.2,358.4C307.2,353.681,303.377,349.867,298.667,349.867z"/>
	</g>
</g>
<g>
</g>
<g>
</g>
<g>
</g>
<g>
</g>
<g>
</g>
<g>
</g>
<g>
</g>
<g>
</g>
<g>
</g>
<g>
</g>
<g>
</g>
<g>
</g>
<g>
</g>
<g>
</g>
<g>
</g>
</svg>
