<?xml version="1.0" encoding="iso-8859-1"?>
<!-- Generator: Adobe Illustrator 19.0.0, SVG Export Plug-In . SVG Version: 6.00 Build 0)  -->
<svg version="1.1" id="Layer_1" xmlns="http://www.w3.org/2000/svg" xmlns:xlink="http://www.w3.org/1999/xlink" x="0px" y="0px"
	 viewBox="0 0 187.452 187.452" style="enable-background:new 0 0 187.452 187.452;" xml:space="preserve">
<g>
	<g>
		<g>
			<path d="M70.203,114.049c-22.792,0-40.644,11.361-40.644,25.864c0,14.504,17.852,25.864,40.644,25.864
				s40.644-11.361,40.644-25.864S92.995,114.049,70.203,114.049z M70.203,158.388c-18.025,0-33.254-8.46-33.254-18.475
				s15.229-18.475,33.254-18.475s33.254,8.46,33.254,18.475C103.458,149.928,88.229,158.388,70.203,158.388z"/>
			<path d="M186.893,65.788c-0.047-0.078-1.205-1.986-4.548-10.206c-1.701-4.186-0.623-10.608,0.092-14.857
				c0.725-4.312,1.205-7.159-1.142-8.951c-1.261-0.958-2.937-1.101-4.492-0.386c-2.971,1.378-15.329,10.611-21.169,15.024
				c-6.203-14.527-20.628-24.736-37.398-24.736H40.644C18.233,21.676,0,39.909,0,62.32c0,22.411,18.233,40.644,40.644,40.644h77.591
				c20.627,0,37.673-15.455,40.266-35.385l24.715,3.859c0.186,0.029,0.37,0.041,0.552,0.041c1.227,0,2.381-0.633,3.076-1.678
				C187.643,68.601,187.65,67.015,186.893,65.788z M7.39,62.32c0-18.336,14.919-33.254,33.254-33.254
				c18.335,0,33.254,14.919,33.254,33.254c0,18.335-14.918,33.255-33.254,33.255S7.39,80.656,7.39,62.32z M118.235,95.575H63.939
				c10.474-7.359,17.349-19.51,17.349-33.254c0-13.744-6.875-25.895-17.349-33.254h54.296c18.337,0,33.256,14.919,33.256,33.254
				C151.491,80.656,136.573,95.575,118.235,95.575z M159.616,60.275l-0.454-7.265c5.626-4.263,11.547-8.638,15.665-11.554
				c-0.787,4.956-1.516,11.527,0.673,16.909c0.747,1.837,1.396,3.388,1.958,4.696L159.616,60.275z"/>
			<rect x="22.169" y="43.846" width="7.39" height="7.39"/>
			<rect x="48.034" y="54.931" width="7.39" height="7.39"/>
			<rect x="70.203" y="125.134" width="7.39" height="7.39"/>
			<rect x="44.339" y="77.1" width="7.39" height="7.39"/>
			<rect x="77.593" y="143.609" width="7.39" height="7.39"/>
			<rect x="33.254" y="62.32" width="7.39" height="7.39"/>
			<rect x="40.644" y="40.151" width="7.39" height="7.39"/>
			<rect x="51.729" y="136.219" width="7.39" height="7.39"/>
			<rect x="18.475" y="73.405" width="7.39" height="7.39"/>
		</g>
	</g>
</g>
<g>
</g>
<g>
</g>
<g>
</g>
<g>
</g>
<g>
</g>
<g>
</g>
<g>
</g>
<g>
</g>
<g>
</g>
<g>
</g>
<g>
</g>
<g>
</g>
<g>
</g>
<g>
</g>
<g>
</g>
</svg>
