<?xml version="1.0" encoding="iso-8859-1"?>
<!-- Generator: Adobe Illustrator 19.0.0, SVG Export Plug-In . SVG Version: 6.00 Build 0)  -->
<svg version="1.1" id="Capa_1" xmlns="http://www.w3.org/2000/svg" xmlns:xlink="http://www.w3.org/1999/xlink" x="0px" y="0px"
	 viewBox="0 0 512 512" style="enable-background:new 0 0 512 512;" xml:space="preserve">
<g>
	<g>
		<g>
			<path d="M469.5,51.2c4.713,0,8.533-3.82,8.533-8.533s-3.821-8.533-8.533-8.533h-0.083c-4.713,0.023-8.515,3.862-8.492,8.575
				S464.787,51.223,469.5,51.2z"/>
			<path d="M435.367,51.2c4.713,0,8.533-3.82,8.533-8.533s-3.82-8.533-8.533-8.533h-0.083c-4.713,0.023-8.515,3.862-8.492,8.575
				C426.815,47.421,430.654,51.223,435.367,51.2z"/>
			<path d="M469.5,93.867c4.713,0,8.533-3.821,8.533-8.533S474.213,76.8,469.5,76.8h-0.083c-4.713,0.023-8.515,3.862-8.492,8.575
				S464.787,93.89,469.5,93.867z"/>
			<path d="M435.367,93.867c4.713,0,8.533-3.821,8.533-8.533s-3.82-8.533-8.533-8.533h-0.083c-4.713,0.023-8.515,3.862-8.492,8.575
				C426.815,90.088,430.654,93.89,435.367,93.867z"/>
			<path d="M469.5,136.533c4.713,0,8.533-3.82,8.533-8.533s-3.821-8.533-8.533-8.533h-0.083c-4.713,0.023-8.515,3.862-8.492,8.575
				S464.787,136.556,469.5,136.533z"/>
			<path d="M435.367,136.533c4.713,0,8.533-3.82,8.533-8.533s-3.82-8.533-8.533-8.533h-0.083c-4.713,0.023-8.515,3.862-8.492,8.575
				C426.815,132.755,430.654,136.556,435.367,136.533z"/>
			<path d="M469.5,179.2c4.713,0,8.533-3.82,8.533-8.533s-3.821-8.533-8.533-8.533h-0.083c-4.713,0.023-8.515,3.862-8.492,8.575
				S464.787,179.223,469.5,179.2z"/>
			<path d="M435.367,179.2c4.713,0,8.533-3.82,8.533-8.533s-3.82-8.533-8.533-8.533h-0.083c-4.713,0.023-8.515,3.862-8.492,8.575
				C426.815,175.421,430.654,179.223,435.367,179.2z"/>
			<path d="M469.5,221.867c4.713,0,8.533-3.821,8.533-8.533c0-4.713-3.821-8.533-8.533-8.533h-0.083
				c-4.713,0.023-8.515,3.862-8.492,8.575C460.948,218.088,464.787,221.89,469.5,221.867z"/>
			<path d="M435.367,221.867c4.713,0,8.533-3.821,8.533-8.533c0-4.713-3.82-8.533-8.533-8.533h-0.083
				c-4.713,0.023-8.515,3.862-8.492,8.575C426.815,218.088,430.654,221.89,435.367,221.867z"/>
			<path d="M469.5,264.533c4.713,0,8.533-3.82,8.533-8.533s-3.821-8.533-8.533-8.533h-0.083c-4.713,0.023-8.515,3.862-8.492,8.575
				S464.787,264.556,469.5,264.533z"/>
			<path d="M435.367,264.533c4.713,0,8.533-3.82,8.533-8.533s-3.82-8.533-8.533-8.533h-0.083c-4.713,0.023-8.515,3.862-8.492,8.575
				C426.815,260.755,430.654,264.556,435.367,264.533z"/>
			<path d="M469.5,307.2c4.713,0,8.533-3.82,8.533-8.533s-3.821-8.533-8.533-8.533h-0.083c-4.713,0.023-8.515,3.862-8.492,8.575
				S464.787,307.223,469.5,307.2z"/>
			<path d="M435.367,307.2c4.713,0,8.533-3.82,8.533-8.533s-3.82-8.533-8.533-8.533h-0.083c-4.713,0.023-8.515,3.862-8.492,8.575
				C426.815,303.421,430.654,307.223,435.367,307.2z"/>
			<path d="M469.5,349.867c4.713,0,8.533-3.82,8.533-8.533s-3.821-8.533-8.533-8.533h-0.083c-4.713,0.023-8.515,3.862-8.492,8.575
				C460.948,346.088,464.787,349.89,469.5,349.867z"/>
			<path d="M435.367,349.867c4.713,0,8.533-3.82,8.533-8.533s-3.82-8.533-8.533-8.533h-0.083c-4.713,0.023-8.515,3.862-8.492,8.575
				C426.815,346.088,430.654,349.89,435.367,349.867z"/>
			<path d="M469.5,392.533c4.713,0,8.533-3.82,8.533-8.533s-3.821-8.533-8.533-8.533h-0.083c-4.713,0.023-8.515,3.862-8.492,8.575
				C460.948,388.755,464.787,392.556,469.5,392.533z"/>
			<path d="M469.5,435.2c4.713,0,8.533-3.82,8.533-8.533s-3.821-8.533-8.533-8.533h-0.083c-4.713,0.023-8.515,3.862-8.492,8.575
				S464.787,435.223,469.5,435.2z"/>
			<path d="M435.325,392.617c4.728,0,8.564-3.826,8.575-8.554s-3.806-8.573-8.533-8.596h-0.083
				c-4.728,0.023-8.545,3.868-8.533,8.596C426.761,388.79,430.597,392.617,435.325,392.617z"/>
			<path d="M42.833,460.8L42.833,460.8H42.75c-4.728,0.023-8.545,3.868-8.533,8.596s3.847,8.554,8.575,8.554
				c4.728,0,8.564-3.827,8.575-8.554S47.561,460.823,42.833,460.8z"/>
			<path d="M42.833,426.667L42.833,426.667H42.75c-4.728,0.023-8.545,3.868-8.533,8.596c0.011,4.728,3.847,8.554,8.575,8.554
				c4.728,0,8.564-3.826,8.575-8.554C51.378,430.535,47.561,426.69,42.833,426.667z"/>
			<path d="M85.5,460.8h-0.083c-4.728,0.023-8.545,3.868-8.533,8.596c0.011,4.728,3.847,8.554,8.575,8.554s8.564-3.827,8.575-8.554
				C94.045,464.668,90.228,460.823,85.5,460.8z"/>
			<path d="M85.5,426.667h-0.083c-4.728,0.023-8.545,3.868-8.533,8.596c0.011,4.728,3.847,8.554,8.575,8.554
				s8.564-3.826,8.575-8.554C94.045,430.535,90.228,426.69,85.5,426.667z"/>
			<path d="M128.167,460.8h-0.083c-4.728,0.023-8.545,3.868-8.533,8.596c0.012,4.728,3.847,8.554,8.575,8.554
				c4.728,0,8.564-3.827,8.575-8.554S132.894,460.823,128.167,460.8z"/>
			<path d="M128.167,426.667h-0.083c-4.728,0.023-8.545,3.868-8.533,8.596c0.012,4.728,3.847,8.554,8.575,8.554
				c4.728,0,8.564-3.826,8.575-8.554C136.711,430.535,132.894,426.69,128.167,426.667z"/>
			<path d="M170.833,460.8h-0.083c-4.728,0.023-8.545,3.868-8.533,8.596s3.847,8.554,8.575,8.554s8.564-3.827,8.575-8.554
				C179.378,464.668,175.561,460.823,170.833,460.8z"/>
			<path d="M170.833,426.667h-0.083c-4.728,0.023-8.545,3.868-8.533,8.596c0.011,4.728,3.847,8.554,8.575,8.554
				s8.564-3.826,8.575-8.554C179.378,430.535,175.561,426.69,170.833,426.667z"/>
			<path d="M213.5,460.8h-0.083c-4.728,0.023-8.545,3.868-8.533,8.596c0.011,4.728,3.847,8.554,8.575,8.554s8.564-3.827,8.575-8.554
				C222.045,464.668,218.228,460.823,213.5,460.8z"/>
			<path d="M213.5,426.667h-0.083c-4.728,0.023-8.545,3.868-8.533,8.596c0.011,4.728,3.847,8.554,8.575,8.554
				s8.564-3.826,8.575-8.554C222.045,430.535,218.228,426.69,213.5,426.667z"/>
			<path d="M256.167,460.8h-0.083c-4.728,0.023-8.545,3.868-8.533,8.596c0.012,4.728,3.847,8.554,8.575,8.554
				c4.728,0,8.564-3.827,8.575-8.554S260.894,460.823,256.167,460.8z"/>
			<path d="M256.167,426.667h-0.083c-4.728,0.023-8.545,3.868-8.533,8.596c0.012,4.728,3.847,8.554,8.575,8.554
				c4.728,0,8.564-3.826,8.575-8.554C264.711,430.535,260.894,426.69,256.167,426.667z"/>
			<path d="M298.833,460.8h-0.083c-4.728,0.023-8.545,3.868-8.533,8.596s3.847,8.554,8.575,8.554c4.728,0,8.564-3.827,8.575-8.554
				C307.378,464.668,303.561,460.823,298.833,460.8z"/>
			<path d="M298.833,426.667h-0.083c-4.728,0.023-8.545,3.868-8.533,8.596c0.011,4.728,3.847,8.554,8.575,8.554
				c4.728,0,8.564-3.826,8.575-8.554C307.378,430.535,303.561,426.69,298.833,426.667z"/>
			<path d="M341.5,460.8h-0.083c-4.728,0.023-8.545,3.868-8.533,8.596c0.011,4.728,3.847,8.554,8.575,8.554s8.564-3.827,8.575-8.554
				C350.045,464.668,346.228,460.823,341.5,460.8z"/>
			<path d="M341.5,426.667h-0.083c-4.728,0.023-8.545,3.868-8.533,8.596c0.011,4.728,3.847,8.554,8.575,8.554
				s8.564-3.826,8.575-8.554C350.045,430.535,346.228,426.69,341.5,426.667z"/>
			<path d="M384.167,460.8h-0.083c-4.728,0.023-8.545,3.868-8.533,8.596c0.012,4.728,3.847,8.554,8.575,8.554
				s8.564-3.827,8.575-8.554S388.894,460.823,384.167,460.8z"/>
			<path d="M426.792,477.95c4.728,0,8.564-3.827,8.575-8.554s-3.806-8.573-8.533-8.596h-0.083c-4.728,0.023-8.545,3.868-8.533,8.596
				S422.064,477.95,426.792,477.95z"/>
			<path d="M384.167,426.667h-0.083c-4.728,0.023-8.545,3.868-8.533,8.596c0.012,4.728,3.847,8.554,8.575,8.554
				s8.564-3.826,8.575-8.554C392.711,430.535,388.894,426.69,384.167,426.667z"/>
			<path d="M512,17.067C511.989,7.645,504.355,0.011,494.933,0h-358.4c-2.266,0.006-4.437,0.907-6.041,2.507L2.506,130.494
				c-1.599,1.604-2.499,3.774-2.506,6.039v358.4c0.011,9.421,7.645,17.056,17.067,17.067h477.867
				c1.701-0.024,3.389-0.306,5.005-0.836c3.219,1.518,7.044,0.852,9.561-1.664s3.183-6.342,1.665-9.561
				c0.53-1.617,0.812-3.305,0.836-5.006V17.067z M128,29.133V128H29.133L128,29.133z M17.067,145.067h119.467
				c2.263,0.001,4.434-0.898,6.035-2.499c1.6-1.6,2.499-3.771,2.499-6.035V17.067h247.467v375.467H17.067V145.067z M17.067,494.933
				V409.6h375.467c1.478-0.02,2.946-0.232,4.369-0.631l85.964,85.965H17.067z M494.933,482.867l-85.937-85.937
				c0.382-1.372,0.585-2.789,0.604-4.213V17.067h85.333V482.867z"/>
		</g>
	</g>
</g>
<g>
</g>
<g>
</g>
<g>
</g>
<g>
</g>
<g>
</g>
<g>
</g>
<g>
</g>
<g>
</g>
<g>
</g>
<g>
</g>
<g>
</g>
<g>
</g>
<g>
</g>
<g>
</g>
<g>
</g>
</svg>
