<?xml version="1.0" encoding="iso-8859-1"?>
<!-- Generator: Adobe Illustrator 19.0.0, SVG Export Plug-In . SVG Version: 6.00 Build 0)  -->
<svg version="1.1" id="Capa_1" xmlns="http://www.w3.org/2000/svg" xmlns:xlink="http://www.w3.org/1999/xlink" x="0px" y="0px"
	 viewBox="0 0 512 512" style="enable-background:new 0 0 512 512;" xml:space="preserve">
<g>
	<g>
		<g>
			<path d="M298.667,85.766v-17.5h17.067c2.264,0.001,4.435-0.897,6.035-2.498c1.601-1.601,2.499-3.772,2.498-6.035v-35.9
				C324.252,10.677,313.59,0.015,300.433,0h-88.866c-13.157,0.015-23.819,10.677-23.834,23.834v35.9
				c-0.001,2.264,0.897,4.435,2.498,6.035c1.601,1.601,3.772,2.499,6.035,2.498h17.067v17.5c-43.576,4.435-76.742,41.1-76.8,84.901
				v305.258c0.023,19.914,16.161,36.052,36.075,36.075h166.783c19.914-0.023,36.052-16.161,36.075-36.075V170.667
				C375.409,126.866,342.242,90.201,298.667,85.766z M204.8,51.2V23.834c0.003-3.736,3.031-6.764,6.767-6.767h1.766V25.6
				c0,4.713,3.82,8.533,8.533,8.533s8.533-3.821,8.533-8.533v-8.533h17.067V25.6c0,4.713,3.82,8.533,8.533,8.533
				c4.713,0,8.533-3.821,8.533-8.533v-8.533H281.6V25.6c0,4.713,3.821,8.533,8.533,8.533c4.713,0,8.533-3.821,8.533-8.533v-8.533
				h1.766c3.736,0.003,6.764,3.031,6.767,6.767V51.2H204.8z M281.6,68.267v17.067h-51.2V68.267H281.6z M358.4,475.925
				c-0.01,10.494-8.515,18.998-19.008,19.008H172.608c-10.494-0.01-18.998-8.515-19.008-19.008V170.667
				c0.043-37.685,30.582-68.224,68.267-68.267h68.267c37.685,0.043,68.224,30.582,68.267,68.267V475.925z"/>
			<path d="M318.533,133.733c-19.414-9.66-40.851-14.551-62.533-14.267c-21.682-0.284-43.12,4.607-62.533,14.267
				c-14.109,7.296-22.922,21.9-22.8,37.783v297.817c-0.001,2.264,0.897,4.435,2.498,6.035c1.601,1.601,3.772,2.499,6.035,2.498
				h153.6c2.264,0.001,4.435-0.897,6.035-2.498c1.601-1.601,2.499-3.772,2.498-6.035v-102.4V171.517
				C341.455,155.634,332.642,141.029,318.533,133.733z M324.267,460.8H187.733v-85.333h136.533V460.8z M324.267,358.4H187.733v-51.2
				h136.533V358.4z M324.267,290.133H187.733V171.517c-0.105-9.481,5.126-18.216,13.533-22.6c17-8.423,35.764-12.669,54.733-12.383
				c18.97-0.285,37.734,3.96,54.733,12.383c8.407,4.384,13.638,13.119,13.533,22.6V290.133z"/>
			<path d="M256,179.2c-23.564,0-42.667,19.103-42.667,42.667c0.028,23.553,19.114,42.639,42.667,42.667
				c23.564,0,42.667-19.102,42.667-42.667S279.564,179.2,256,179.2z M256,247.467c-14.138,0-25.6-11.461-25.6-25.6
				c0.015-14.132,11.468-25.585,25.6-25.6c14.138,0,25.6,11.462,25.6,25.6S270.138,247.467,256,247.467z"/>
			<path d="M238.933,341.333h34.133c4.713,0,8.533-3.821,8.533-8.533c0-4.713-3.82-8.533-8.533-8.533h-34.133
				c-4.713,0-8.533,3.821-8.533,8.533C230.4,337.513,234.221,341.333,238.933,341.333z"/>
			<path d="M238.933,409.6h34.133c4.713,0,8.533-3.82,8.533-8.533s-3.82-8.533-8.533-8.533h-34.133
				c-4.713,0-8.533,3.821-8.533,8.533S234.221,409.6,238.933,409.6z"/>
			<path d="M213.333,443.733h85.333c4.713,0,8.533-3.82,8.533-8.533s-3.82-8.533-8.533-8.533h-85.333
				c-4.713,0-8.533,3.82-8.533,8.533S208.62,443.733,213.333,443.733z"/>
		</g>
	</g>
</g>
<g>
</g>
<g>
</g>
<g>
</g>
<g>
</g>
<g>
</g>
<g>
</g>
<g>
</g>
<g>
</g>
<g>
</g>
<g>
</g>
<g>
</g>
<g>
</g>
<g>
</g>
<g>
</g>
<g>
</g>
</svg>
