<?xml version="1.0" encoding="iso-8859-1"?>
<!-- Generator: Adobe Illustrator 16.0.0, SVG Export Plug-In . SVG Version: 6.00 Build 0)  -->
<!DOCTYPE svg PUBLIC "-//W3C//DTD SVG 1.1//EN" "http://www.w3.org/Graphics/SVG/1.1/DTD/svg11.dtd">
<svg version="1.1" id="Capa_1" xmlns="http://www.w3.org/2000/svg" xmlns:xlink="http://www.w3.org/1999/xlink" x="0px" y="0px"
	 width="517.775px" height="517.775px" viewBox="0 0 517.775 517.775" style="enable-background:new 0 0 517.775 517.775;"
	 xml:space="preserve">
<g>
	<path d="M398.647,49.784c-0.032-1.062-0.336-2.061-0.854-2.931c-0.065-0.114-0.14-0.229-0.215-0.343
		c-0.252-0.364-0.532-0.698-0.854-1.003c-0.056-0.054-0.098-0.114-0.153-0.164c-0.383-0.338-0.812-0.611-1.279-0.849
		c-0.051-0.026-0.093-0.072-0.14-0.096c-0.079-0.04-0.168-0.04-0.238-0.072c-0.368-0.159-0.751-0.278-1.162-0.364
		c-0.14-0.028-0.266-0.07-0.401-0.096c-0.052-0.004-0.093-0.023-0.14-0.028l-74.543-8.765v-7.766c0-0.511-0.079-0.999-0.2-1.473
		c0.746-1.524,1.208-3.162,1.208-4.97C319.676,4.396,286.213,0,266.438,0c-19.776,0-53.244,4.401-53.244,20.869
		c0,1.65,0.42,3.146,1.039,4.56l-92.506,64.823c-0.105,0.072-0.189,0.168-0.289,0.25c-0.096,0.072-0.201,0.124-0.287,0.206
		c-0.063,0.056-0.105,0.128-0.173,0.191c-0.168,0.161-0.315,0.333-0.459,0.511c-0.119,0.143-0.238,0.292-0.343,0.448
		c-0.14,0.196-0.245,0.396-0.354,0.607c-0.086,0.163-0.166,0.317-0.238,0.483c-0.096,0.231-0.163,0.464-0.224,0.698
		c-0.049,0.168-0.105,0.322-0.14,0.488c-0.056,0.282-0.07,0.574-0.086,0.861c-0.009,0.11-0.037,0.21-0.037,0.324v383.31
		c0,2.987,2.146,5.554,5.089,6.081l184.095,32.974c0.364,0.061,0.728,0.093,1.092,0.093c0.271,0,0.523-0.103,0.794-0.14
		c0.42,0.093,0.849,0.14,1.273,0.14c1.573,0,3.122-0.598,4.299-1.736l81.058-78.309c1.204-1.172,1.886-2.772,1.886-4.447V49.979
		C398.676,49.912,398.652,49.849,398.647,49.784z M266.438,12.373c24.488,0,38.046,5.645,40.618,8.496
		c-2.572,2.859-16.13,8.503-40.618,8.503c-24.488,0-38.046-5.645-40.622-8.503C228.393,18.017,241.951,12.373,266.438,12.373z
		 M306.301,35.428v39.21c-0.836,2.74-14.197,9.859-39.676,9.859c-25.545,0-38.921-7.164-39.681-9.787
		c0-0.698-0.138-1.358-0.353-1.983V35.433c11.525,4.721,28.082,6.303,39.843,6.303C278.205,41.74,294.772,40.153,306.301,35.428z
		 M303.192,504.208l-171.735-30.751v-80.152c22.267,9.576,41.154-25.319,56.269-36.963c16.221-12.508,40.034-6.077,58.866-11.537
		c20.757-6.007,33.844-25.016,54.743-30.733c2.973-0.808,1.708-5.418-1.27-4.606c-17.245,4.714-28.796,17.437-43.915,26.085
		c-19.69,11.271-41.752,4.289-62.145,11.724c-19.455,7.089-39.985,52.551-62.548,40.627V271.129
		c22.267,9.577,41.154-25.316,56.269-36.963c16.221-12.503,40.034-6.074,58.866-11.532c20.757-6.007,33.844-25.021,54.743-30.735
		c2.973-0.807,1.708-5.418-1.27-4.606c-17.245,4.711-28.796,17.434-43.915,26.084c-19.69,11.269-41.752,4.292-62.145,11.724
		c-19.455,7.087-39.985,52.549-62.548,40.625V102.232l171.735,19.224V504.208z M309.292,109.7L142.21,90.994l72.015-50.468v34.18
		c0,0.984,0.25,1.897,0.661,2.726c3.024,13.327,28.222,19.424,51.739,19.424c24.316,0,50.363-6.546,51.894-20.836
		c0.094-0.42,0.145-0.863,0.145-1.313V47.518l58.586,6.891L309.292,109.7z M386.312,430.66l-68.694,66.365V118.871l68.694-55.888
		V430.66z M191.779,281.812l0.292,42.219l-7.899,3.066l-0.196-27.966l-10.237,32.012l-6.816,2.642l-10.949-24.646l0.201,28.814
		l-7.866,3.062l-0.301-42.219l10.611-4.116l11.287,26.519l10.989-35.162L191.779,281.812z M206.56,276.077l0.292,42.218
		l-8.205,3.179l-0.292-42.214L206.56,276.077z M242.858,297.041l0.049,7.267l-29.65,11.505l-0.292-42.219l8.2-3.183l0.245,34.956
		L242.858,297.041z M285.476,245.467l-20.29,25.886l20.113,16.513l-10.244,3.976l-15.393-13.39l-5.782,7.374l0.096,14.192
		l-8.203,3.184l-0.292-42.219l8.207-3.185l0.119,17.873l19.459-25.471L285.476,245.467z"/>
</g>
<g>
</g>
<g>
</g>
<g>
</g>
<g>
</g>
<g>
</g>
<g>
</g>
<g>
</g>
<g>
</g>
<g>
</g>
<g>
</g>
<g>
</g>
<g>
</g>
<g>
</g>
<g>
</g>
<g>
</g>
</svg>
