<?xml version="1.0" encoding="iso-8859-1"?>
<!-- Generator: Adobe Illustrator 18.0.0, SVG Export Plug-In . SVG Version: 6.00 Build 0)  -->
<!DOCTYPE svg PUBLIC "-//W3C//DTD SVG 1.1//EN" "http://www.w3.org/Graphics/SVG/1.1/DTD/svg11.dtd">
<svg version="1.1" id="Capa_1" xmlns="http://www.w3.org/2000/svg" xmlns:xlink="http://www.w3.org/1999/xlink" x="0px" y="0px"
	 viewBox="0 0 58.567 58.567" style="enable-background:new 0 0 58.567 58.567;" xml:space="preserve">
<path d="M56.705,1.21C55.882,0.386,54.713-0.014,53.316,0c-3.64,0.082-8.905,3.219-13.122,7.813
	c-0.752,0.379-2.931,1.523-3.961,2.553c-0.253,0.253-0.486,0.519-0.709,0.79c-0.007,0.008-0.013,0.016-0.019,0.025
	c-1.225,1.499-1.997,3.257-2.224,5.101c-2.188,0.27-4.261,1.298-5.915,2.952c-0.251,0.251-0.483,0.515-0.704,0.784
	c-0.028,0.035-0.055,0.07-0.083,0.105c-1.19,1.482-1.942,3.212-2.165,5.027c-1.968,0.242-3.838,1.102-5.397,2.473
	c-0.037,0.028-0.081,0.042-0.114,0.076c-0.067,0.067-0.123,0.136-0.188,0.203c-0.071,0.068-0.146,0.13-0.216,0.199
	c-1.653,1.653-2.683,3.727-2.952,5.916c-2.189,0.27-4.262,1.298-5.915,2.951c-0.113,0.114-0.207,0.229-0.311,0.344
	c-0.029,0.023-0.064,0.034-0.091,0.061c-1.201,1.2-1.941,2.429-2.236,3.669c-4.253,4.464-9.166,12.139-5.713,15.593
	c1.252,1.252,3.362,1.933,5.854,1.933c0.653,0,1.334-0.047,2.031-0.143c3.488-0.478,6.855-2.118,9.238-4.501l35-35
	c2.397-2.397,4.144-5.857,4.789-9.493C58.83,5.852,58.273,2.779,56.705,1.21z M56.225,9.08c-0.576,3.242-2.119,6.314-4.234,8.429
	l-35,35c-2.08,2.08-5.03,3.514-8.095,3.934c-2.664,0.364-5.094-0.115-6.201-1.223c-1.642-1.642,0.367-6.582,4.426-11.335
	c0.487,1.462,1.622,2.851,3.406,4.142c0.177,0.128,0.382,0.189,0.585,0.189c0.311,0,0.615-0.144,0.812-0.414
	c0.323-0.447,0.223-1.072-0.225-1.396c-1.785-1.291-2.744-2.61-2.849-3.919c-0.015-0.188-0.005-0.379,0.015-0.57
	c0.213-0.278,0.399-0.578,0.526-0.922l0.001-0.001c0.396-1.076,0.876-1.833,1.653-2.611c1.342-1.342,3.084-2.189,4.857-2.386
	c0.408,1.284,1.401,2.822,3.73,4.097c0.152,0.084,0.317,0.123,0.479,0.123c0.354,0,0.696-0.188,0.878-0.52
	c0.266-0.484,0.088-1.093-0.396-1.357c-1.743-0.955-2.728-2.138-2.925-3.517c-0.234-1.637,0.659-3.622,2.438-5.484
	c1.248-1.174,2.806-1.942,4.408-2.177c0.282,2.066,1.355,3.799,3.056,4.896c0.168,0.107,0.355,0.159,0.541,0.159
	c0.328,0,0.65-0.161,0.842-0.458c0.299-0.465,0.165-1.083-0.299-1.383c-1.596-1.027-2.07-2.553-2.188-3.65
	c-0.196-1.828,0.454-3.831,1.716-5.408c0.006-0.008,0.012-0.016,0.018-0.024c0.181-0.224,0.373-0.439,0.578-0.644
	c1.31-1.31,3-2.153,4.727-2.376c0.319,2.028,1.393,3.722,3.069,4.788c0.167,0.105,0.353,0.156,0.536,0.156
	c0.33,0,0.654-0.164,0.845-0.463c0.297-0.466,0.159-1.084-0.307-1.381c-1.255-0.799-2.041-2.107-2.214-3.686
	c-0.229-2.085,0.598-4.293,2.211-5.906c0.556-0.555,1.757-1.285,2.833-1.86c-0.02,0.323-0.016,0.626,0.016,0.891
	c0.203,1.684,1.275,3.156,3.1,4.261c0.162,0.098,0.34,0.145,0.517,0.145c0.338,0,0.669-0.172,0.856-0.482
	c0.286-0.473,0.135-1.087-0.338-1.373c-0.892-0.54-1.988-1.462-2.149-2.79c-0.148-1.226,0.522-2.623,1.94-4.041
	c0.009-0.009,0.011-0.021,0.02-0.03c3.169-2.693,6.552-4.447,8.919-4.5c0.035-0.001,0.07-0.001,0.104-0.001
	c0.796,0,1.409,0.21,1.825,0.626C56.364,3.698,56.731,6.232,56.225,9.08z"/>
<g>
</g>
<g>
</g>
<g>
</g>
<g>
</g>
<g>
</g>
<g>
</g>
<g>
</g>
<g>
</g>
<g>
</g>
<g>
</g>
<g>
</g>
<g>
</g>
<g>
</g>
<g>
</g>
<g>
</g>
</svg>
