<?xml version="1.0" encoding="iso-8859-1"?>
<!-- Generator: Adobe Illustrator 19.0.0, SVG Export Plug-In . SVG Version: 6.00 Build 0)  -->
<svg version="1.1" id="Layer_1" xmlns="http://www.w3.org/2000/svg" xmlns:xlink="http://www.w3.org/1999/xlink" x="0px" y="0px"
	 viewBox="0 0 512 512" style="enable-background:new 0 0 512 512;" xml:space="preserve">
<g>
	<g>
		<path d="M210.748,353.066c-16.6-15.261-37.995-23.63-60.682-23.63H0.018v15.673h150.048c11.815,0,23.197,2.766,33.439,7.957H0
			v15.673h20.016c8.912,0,16.161,7.618,16.161,16.53c0,52.842,42.989,95.831,95.831,95.831h247.984
			c52.841,0,95.831-42.989,95.831-95.831c0-8.912,7.25-16.53,16.162-16.53H512v-15.673H210.748z M460.149,385.27
			c0,0.064-0.004,0.125-0.005,0.188H304.065v15.673h154.501c-7.382,36.627-39.805,64.296-78.574,64.296H132.008
			c-38.77,0-71.192-27.669-78.574-64.296h154.501v-15.673H51.856c0-0.064-0.005-0.125-0.005-0.188c0-6.049-1.697-11.709-4.637-16.53
			h417.574C461.846,373.56,460.149,379.221,460.149,385.27z"/>
	</g>
</g>
<g>
	<g>
		<rect x="120.163" y="489.944" width="263.314" height="15.673"/>
	</g>
</g>
<g>
	<g>
		<rect x="216.294" y="385.454" width="79.412" height="15.674"/>
	</g>
</g>
<g>
	<g>
		<path d="M167.283,200.191c5.91-14.774,5.91-31.045,0-45.818c-4.407-11.02-4.407-23.158,0-34.177
			c5.909-14.773,5.909-31.045,0-45.819l-8-19.998l-14.552,5.821l8,19.998c4.407,11.02,4.407,23.157,0,34.177
			c-5.91,14.773-5.91,31.045,0,45.819c4.407,11.02,4.407,23.156,0,34.177c-5.91,14.774-5.91,31.045,0,45.818
			c4.407,11.019,4.407,23.157,0,34.177l-8,19.999l14.552,5.821l8-19.999c5.909-14.773,5.909-31.045,0-45.819
			C162.876,223.349,162.876,211.21,167.283,200.191z"/>
	</g>
</g>
<g>
	<g>
		<path d="M239.277,232.19l8-19.998l-14.552-5.821l-8,19.999c-5.909,14.773-5.909,31.044,0,45.818
			c4.407,11.018,4.407,23.157,0,34.177l-8,19.998l14.552,5.821l8-19.999c5.91-14.774,5.91-31.045,0-45.818
			C234.87,255.347,234.87,243.209,239.277,232.19z"/>
	</g>
</g>
<g>
	<g>
		<path d="M223.279,64.202l8-19.998l-14.552-5.821l-8,19.999c-5.91,14.774-5.91,31.045,0,45.819l8,19.997l14.552-5.821l-8-19.998
			C218.872,87.36,218.872,75.221,223.279,64.202z"/>
	</g>
</g>
<g>
	<g>
		<path d="M295.275,106.376c-4.408-11.019-4.408-23.157,0-34.177c5.908-14.773,5.908-31.044,0-45.819l-8-19.998l-14.553,5.821
			l8,19.998c4.407,11.019,4.408,23.158,0,34.177c-5.909,14.774-5.909,31.045,0,45.819c4.408,11.019,4.407,23.157,0,34.177
			c-5.909,14.773-5.909,31.045,0,45.818c4.407,11.02,4.408,23.158,0,34.177l-8,20l14.553,5.821l8-19.999
			c5.908-14.773,5.908-31.044,0-45.819c-4.408-11.019-4.408-23.156,0-34.177C301.182,137.421,301.182,121.15,295.275,106.376z"/>
	</g>
</g>
<g>
	<g>
		<path d="M367.269,154.373c-4.407-11.019-4.408-23.158,0-34.177l8-19.999l-14.553-5.821l-8,19.999
			c-5.908,14.773-5.908,31.044,0,45.819c4.408,11.019,4.408,23.156,0,34.177c-5.908,14.774-5.908,31.045,0,45.819
			c4.408,11.019,4.408,23.157,0,34.177l-7.999,19.998l14.553,5.82l7.999-19.998c5.909-14.774,5.909-31.045,0-45.819
			c-4.408-11.019-4.407-23.157,0-34.177C373.178,185.418,373.178,169.146,367.269,154.373z"/>
	</g>
</g>
<g>
</g>
<g>
</g>
<g>
</g>
<g>
</g>
<g>
</g>
<g>
</g>
<g>
</g>
<g>
</g>
<g>
</g>
<g>
</g>
<g>
</g>
<g>
</g>
<g>
</g>
<g>
</g>
<g>
</g>
</svg>
